<?xml version="1.0" encoding="utf-8"?>
<!-- Generator: Adobe Illustrator 27.9.0, SVG Export Plug-In . SVG Version: 6.00 Build 0)  -->
<svg version="1.1" id="Layer_1" xmlns="http://www.w3.org/2000/svg"
	xmlns:xlink="http://www.w3.org/1999/xlink" x="0px" y="0px"
	viewBox="0 0 1080 1080" style="enable-background:new 0 0 1080 1080;" xml:space="preserve">
<style type="text/css">
	.st0{fill:#FFFFFF;}
</style>
<g>
	<g>
		<path class="st0" d="M886.76,584.11l-30.57-85.98l-30.4,85.98h-30.22l42.56-120.02h36.3l42.56,120.02H886.76z"/>
		<path class="st0" d="M959.71,584.11h-28.14V463.56h28.14V584.11z"/>
	</g>
	<g>
		<g>
			<path class="st0" d="M137.38,584.28h-24.95V464.44h81.17c4.54,0,8.8,1.57,12.8,4.71c4,3.15,7.5,7.43,10.49,12.86
				c2.99,5.43,5.35,11.77,7.09,19.03c1.73,7.26,2.6,15,2.6,23.23s-0.87,15.97-2.6,23.23c-1.73,7.26-4.1,13.6-7.09,19.03
				c-2.99,5.43-6.49,9.72-10.49,12.86c-4,3.15-8.27,4.71-12.8,4.71h-56.32L137.38,584.28z M183.86,484.15h-46.58v79.9h45.55
				c2.71,0,5.21-1.08,7.51-3.25c2.3-2.17,4.28-5.1,5.95-8.81c1.67-3.71,2.98-7.96,3.92-12.75c0.94-4.79,1.42-9.86,1.42-15.23
				c0-5.47-0.5-10.61-1.51-15.4c-1.01-4.79-2.35-9.01-4.02-12.66c-1.67-3.65-3.58-6.53-5.72-8.64c-2.14-2.11-4.35-3.17-6.61-3.17
				H183.86z"/>
		</g>
		<g>
			<path class="st0" d="M287.54,585.43c-16.75,0-29.68-3.15-38.8-9.44c-9.12-6.29-13.67-15.33-13.67-27.11
				c0-11.48,3.86-20.39,11.59-26.75c7.73-6.36,18.63-9.53,32.73-9.53c13.29,0,23.56,2.87,30.83,8.61
				c7.26,5.74,10.89,14.08,10.89,25.03c0,3.22-0.19,6.22-0.56,9.01h-68.98v-10.73h51.73c0-6.31-2.1-11.16-6.3-14.53
				c-4.2-3.38-10.01-5.07-17.43-5.07c-8.34,0-14.82,2.03-19.42,6.09c-4.6,4.06-6.91,9.8-6.91,17.21c0,8.12,3.17,14.3,9.5,18.54
				c6.33,4.24,15.34,6.36,27.02,6.36c4.08,0,8.1-0.17,12.05-0.5c3.95-0.33,7.97-0.78,12.05-1.36l2.41,12.32
				c-5.81,0.79-11.12,1.3-15.95,1.52C295.52,585.32,291.25,585.43,287.54,585.43z"/>
			<path class="st0" d="M344.09,584.11v-70.19h17.43l2.23,14.83v55.35H344.09z M380.99,584.11v-54.96c0-3.97-2.6-5.96-7.79-5.96
				c-6.3,0-9.46,3.18-9.46,9.53L358,522.66h6.3c0.74-6.71,6.37-10.06,16.87-10.06c5.13,0,9.16,1.26,12.1,3.77
				c2.93,2.52,4.4,6.33,4.4,11.46v56.28H380.99z M414.92,584.11v-53.63c0-4.86-2.54-7.28-7.6-7.28c-6.43,0-9.64,3.18-9.64,9.53
				l-6.67-10.06h7.6c0.31-2.74,1.84-5.1,4.59-7.08c2.75-1.99,6.72-2.98,11.91-2.98c6.8,0,11.74,1.3,14.83,3.91
				c3.09,2.61,4.64,6.82,4.64,12.65v54.96H414.92z"/>
			<path class="st0" d="M490.95,585.43c-10.32,0-18.31-2.2-23.97-6.59c-5.65-4.39-8.48-10.58-8.48-18.57v-46.35h19.65v46.35
				c0,4.02,1.61,7.12,4.82,9.3c3.21,2.18,7.73,3.28,13.54,3.28c7.17,0,12.58-1.62,16.22-4.87c3.65-3.24,5.47-8.68,5.47-16.32
				l5.01,18.94h-6.49c-1.55,4.77-4.57,8.43-9.09,10.99C503.12,584.15,497.56,585.43,490.95,585.43z M518.2,564.24v-50.32h19.65
				v46.35L518.2,564.24z M519.87,584.77l-1.67-16.82v-12.32h19.65v15.76l13.54,1.46v11.26L519.87,584.77z"/>
			<path class="st0" d="M563.63,584.11v-11.52h65.64v11.52H563.63z M567.34,525.44v-11.52h32.82l1.86,11.52H567.34z M585.51,584.11
				v-70.19h15.95l3.71,20.13v50.06H585.51z M605.16,553.92l-5.75-21.98h7.6c1.11-12.89,10.13-19.33,27.07-19.33
				c10.14,0,17.49,2.08,22.06,6.22c4.57,4.15,6.86,10.86,6.86,20.13h-19.47c0-5.12-1.07-8.81-3.2-11.06
				c-2.13-2.25-5.58-3.38-10.34-3.38c-8.34,0-14.57,2.55-18.68,7.65C607.22,537.26,605.16,544.51,605.16,553.92z"/>
			<path class="st0" d="M708.62,585.43c-10.26,0-18.2-1.76-23.83-5.3c-5.62-3.53-8.44-8.52-8.44-14.96
				c0-7.42,3.88-13.11,11.63-17.08c7.76-3.97,18.71-5.96,32.87-5.96c5.87,0,11.11,0.25,15.71,0.76c4.6,0.51,8.7,1.27,12.28,2.29
				l-4.08,9.53c-4.14-0.66-8.19-1.05-12.15-1.16c-3.96-0.11-8-0.17-12.14-0.17c-17.06,0-25.59,3.71-25.59,11.12
				c0,3.09,1.47,5.47,4.4,7.15c2.93,1.68,7.09,2.52,12.47,2.52c6.12,0,11.23-0.75,15.34-2.25c4.11-1.5,7.18-3.42,9.22-5.76
				c2.04-2.34,3.06-4.75,3.06-7.22v-7.68l5.75,18.01h-7.79l3.15-2.12c0,4.06-1.31,7.45-3.94,10.16c-2.63,2.71-6.32,4.75-11.08,6.09
				C720.74,584.76,715.12,585.43,708.62,585.43z M743.3,584.77l-1.3-20.79l-2.6-5.83v-18.14c0-4.68-2.3-8.11-6.91-10.3
				c-4.61-2.19-11.45-3.37-20.54-3.54l-23.55-0.46l1.85-12.45l19.84,0.2c16.25,0.18,28.32,2.68,36.2,7.52s11.82,11.88,11.82,21.15
				v29.27l16.69,1.46v11.26L743.3,584.77z"/>
		</g>
	</g>
</g>
<g>
</g>
<g>
</g>
<g>
</g>
<g>
</g>
<g>
</g>
<g>
</g>
<g>
</g>
<g>
</g>
<g>
</g>
<g>
</g>
<g>
</g>
<g>
</g>
<g>
</g>
<g>
</g>
<g>
</g>
</svg>