<?xml version="1.0" encoding="utf-8"?>
<!-- Generator: Adobe Illustrator 27.9.0, SVG Export Plug-In . SVG Version: 6.00 Build 0)  -->
<svg version="1.1" id="Layer_1" xmlns="http://www.w3.org/2000/svg"
	xmlns:xlink="http://www.w3.org/1999/xlink" x="0px" y="0px"
	viewBox="0 0 1080 1080" style="enable-background:new 0 0 1080 1080;" xml:space="preserve">
<style type="text/css">
	.st0{fill:#FFFFFF;}
</style>
<g>
	<rect width="1080" height="1080"/>
	<g>
		<path class="st0" d="M838.2,635.44L773,452.05l-64.83,183.38H643.7l90.77-256h77.43l90.77,256H838.2z"/>
	</g>
	<g>
		<path class="st0" d="M236.96,633.72h-53.69V375.76h174.71c9.76,0,18.95,3.38,27.56,10.15c8.61,6.77,16.13,16,22.58,27.68
			c6.44,11.69,11.52,25.34,15.25,40.96c3.73,15.63,5.59,32.29,5.59,50c0,17.71-1.87,34.38-5.59,50
			c-3.73,15.63-8.82,29.28-15.25,40.96c-6.44,11.69-13.97,20.91-22.58,27.68c-8.61,6.77-17.8,10.15-27.56,10.15H236.76
			L236.96,633.72z M337.03,418.2H236.76v171.97h98.03c5.83,0,11.22-2.33,16.17-7c4.95-4.67,9.22-10.98,12.81-18.96
			c3.59-7.98,6.41-17.13,8.44-27.44c2.03-10.31,3.05-21.23,3.05-32.77c0-11.78-1.09-22.83-3.25-33.14
			c-2.17-10.31-5.05-19.4-8.64-27.25c-3.59-7.85-7.7-14.05-12.3-18.6c-4.61-4.54-9.36-6.82-14.24-6.82H337.03z"/>
	</g>
	<g>
		<path class="st0" d="M560.19,636.2c-36.05,0-63.89-6.77-83.51-20.31c-19.62-13.54-29.43-32.99-29.43-58.36
			c0-24.7,8.31-43.9,24.94-57.58c16.63-13.68,40.11-20.52,70.44-20.52c28.6,0,50.72,6.18,66.35,18.53
			c15.63,12.35,23.45,30.31,23.45,53.87c0,6.94-0.4,13.4-1.2,19.38H482.76v-23.09h111.35c0-13.59-4.52-24.01-13.57-31.28
			c-9.05-7.27-21.55-10.9-37.52-10.9c-17.96,0-31.9,4.37-41.81,13.11c-9.91,8.74-14.87,21.09-14.87,37.05
			c0,17.48,6.82,30.79,20.45,39.91c13.64,9.12,33.03,13.68,58.17,13.68c8.78,0,17.43-0.36,25.94-1.07
			c8.51-0.71,17.16-1.69,25.94-2.92l5.19,26.51c-12.51,1.71-23.95,2.8-34.32,3.28C577.35,635.96,568.17,636.2,560.19,636.2z"/>
	</g>
</g>
</svg>