<?xml version="1.0" encoding="UTF-8"?>
<svg id="Layer_2" data-name="Layer 2" xmlns="http://www.w3.org/2000/svg" viewBox="0 0 864.8 206.2">
  <g id="Layer_1-2" data-name="Layer 1">
    <g>
      <g>
        <path d="m779.1,147.2l-30.6-86-30.4,86h-30.2l42.6-120h36.3l42.6,120h-30.2Z"
          style="fill: #fff; stroke-width: 0px;" />
        <path d="m852.1,147.2h-28.1V26.7h28.1v120.5Z" style="fill: #fff; stroke-width: 0px;" />
      </g>
      <g>
        <path
          d="m29.8,147.4H4.8V27.5h81.2c4.5,0,8.8,1.6,12.8,4.7,4,3.1,7.5,7.4,10.5,12.9,3,5.4,5.4,11.8,7.1,19,1.7,7.3,2.6,15,2.6,23.2s-.9,16-2.6,23.2c-1.7,7.3-4.1,13.6-7.1,19-3,5.4-6.5,9.7-10.5,12.9-4,3.1-8.3,4.7-12.8,4.7H29.7v.2Zm46.5-100.1H29.7v79.9h45.5c2.7,0,5.2-1.1,7.5-3.2,2.3-2.2,4.3-5.1,6-8.8,1.7-3.7,3-8,3.9-12.7.9-4.8,1.4-9.9,1.4-15.2s-.5-10.6-1.5-15.4c-1-4.8-2.3-9-4-12.7-1.7-3.6-3.6-6.5-5.7-8.6-2.1-2.1-4.3-3.2-6.6-3.2h0Z"
          style="fill: #fff; stroke-width: 0px;" />
        <g>
          <path
            d="m179.9,148.5c-16.8,0-29.7-3.1-38.8-9.4-9.1-6.3-13.7-15.3-13.7-27.1s3.9-20.4,11.6-26.7c7.7-6.4,18.6-9.5,32.7-9.5s23.6,2.9,30.8,8.6c7.3,5.7,10.9,14.1,10.9,25s-.2,6.2-.6,9h-69v-10.7h51.7c0-6.3-2.1-11.2-6.3-14.5-4.2-3.4-10-5.1-17.4-5.1s-14.8,2-19.4,6.1c-4.6,4.1-6.9,9.8-6.9,17.2s3.2,14.3,9.5,18.5c6.3,4.2,15.3,6.4,27,6.4s8.1-.2,12.1-.5c4-.3,8-.8,12.1-1.4l2.4,12.3c-5.8.8-11.1,1.3-15.9,1.5-4.8.2-9.1.3-12.8.3Z"
            style="fill: #fff; stroke-width: 0px;" />
          <path
            d="m236.5,147.2v-70.2h17.4l2.2,14.8v55.4h-19.7Zm36.9,0v-55c0-4-2.6-6-7.8-6s-9.5,3.2-9.5,9.5l-5.7-10.1h6.3c.7-6.7,6.4-10.1,16.9-10.1s9.2,1.3,12.1,3.8c2.9,2.5,4.4,6.3,4.4,11.5v56.3h-16.7Zm33.9,0v-53.6c0-4.9-2.5-7.3-7.6-7.3s-9.6,3.2-9.6,9.5l-6.7-10.1h7.6c.3-2.7,1.8-5.1,4.6-7.1,2.7-2,6.7-3,11.9-3s11.7,1.3,14.8,3.9c3.1,2.6,4.6,6.8,4.6,12.6v55h-19.7Z"
            style="fill: #fff; stroke-width: 0px;" />
          <path
            d="m383.3,148.5c-10.3,0-18.3-2.2-24-6.6-5.7-4.4-8.5-10.6-8.5-18.6v-46.3h19.7v46.3c0,4,1.6,7.1,4.8,9.3,3.2,2.2,7.7,3.3,13.5,3.3s12.6-1.6,16.2-4.9c3.6-3.2,5.5-8.7,5.5-16.3l5,18.9h-6.5c-1.5,4.8-4.6,8.4-9.1,11-4.5,2.6-10.1,3.8-16.7,3.8Zm27.3-21.2v-50.3h19.7v46.3l-19.7,4Zm1.7,20.5l-1.7-16.8v-12.3h19.7v15.8l13.5,1.5v11.3l-31.5.7Z"
            style="fill: #fff; stroke-width: 0px;" />
          <path
            d="m456,147.2v-11.5h65.6v11.5h-65.6Zm3.7-58.7v-11.5h32.8l1.9,11.5h-34.7Zm18.2,58.7v-70.2h15.9l3.7,20.1v50.1h-19.7Zm19.7-30.2l-5.7-22h7.6c1.1-12.9,10.1-19.3,27.1-19.3s17.5,2.1,22.1,6.2c4.6,4.1,6.9,10.9,6.9,20.1h-19.5c0-5.1-1.1-8.8-3.2-11.1-2.1-2.3-5.6-3.4-10.3-3.4-8.3,0-14.6,2.5-18.7,7.6-4.1,5.1-6.2,12.3-6.2,21.8Z"
            style="fill: #fff; stroke-width: 0px;" />
          <path
            d="m601,148.5c-10.3,0-18.2-1.8-23.8-5.3-5.6-3.5-8.4-8.5-8.4-15s3.9-13.1,11.6-17.1c7.8-4,18.7-6,32.9-6s11.1.3,15.7.8c4.6.5,8.7,1.3,12.3,2.3l-4.1,9.5c-4.1-.7-8.2-1-12.1-1.2-4-.1-8-.2-12.1-.2-17.1,0-25.6,3.7-25.6,11.1s1.5,5.5,4.4,7.2c2.9,1.7,7.1,2.5,12.5,2.5s11.2-.8,15.3-2.3c4.1-1.5,7.2-3.4,9.2-5.8,2-2.3,3.1-4.7,3.1-7.2v-7.7l5.7,18h-7.8l3.2-2.1c0,4.1-1.3,7.4-3.9,10.2-2.6,2.7-6.3,4.7-11.1,6.1-4.8,1.3-10.4,2-16.9,2Zm34.7-.7l-1.3-20.8-2.6-5.8v-18.1c0-4.7-2.3-8.1-6.9-10.3-4.6-2.2-11.4-3.4-20.5-3.5l-23.5-.5,1.9-12.4,19.8.2c16.3.2,28.3,2.7,36.2,7.5s11.8,11.9,11.8,21.2v29.3l16.7,1.5v11.3l-31.5.7Z"
            style="fill: #fff; stroke-width: 0px;" />
        </g>
      </g>
    </g>
  </g>
</svg>